<svg width="36" height="36" viewBox="0 0 36 36" fill="none" xmlns="http://www.w3.org/2000/svg">
<g clip-path="url(#clip0_1_9367)">
<path d="M25.1595 0.0199689C25.083 -0.0655311 22.3268 0.053719 19.9283 2.65697C17.5298 5.25797 17.8988 8.24147 17.9528 8.31797C18.0068 8.39447 21.3728 8.51372 23.5215 5.48747C25.6703 2.46122 25.236 0.107719 25.1595 0.0199689ZM32.616 26.4192C32.508 26.2032 27.3848 23.6427 27.8618 18.7197C28.3388 13.7967 31.6305 12.4445 31.6823 12.2982C31.734 12.152 30.339 10.5207 28.8608 9.69497C27.7752 9.11335 26.5741 8.77983 25.344 8.71847C25.101 8.71172 24.2573 8.50472 22.5225 8.97947C21.3795 9.29222 18.8033 10.3047 18.0945 10.3452C17.3835 10.3857 15.2685 9.17072 12.9938 8.84897C11.538 8.56772 9.99452 9.14372 8.88977 9.58697C7.78727 10.028 5.69027 11.2835 4.22327 14.6202C2.75627 17.9547 3.52352 23.2377 4.07252 24.8802C4.62152 26.5227 5.47877 29.2092 6.93677 31.1712C8.23277 33.3852 9.95177 34.922 10.6695 35.444C11.3873 35.966 13.4123 36.3125 14.8163 35.5947C15.9458 34.9017 17.9843 34.5035 18.7898 34.5327C19.593 34.562 21.177 34.8792 22.7993 35.7455C24.084 36.1887 25.299 36.0042 26.5163 35.5092C27.7335 35.012 29.4953 33.1265 31.5518 29.3037C32.3318 27.5262 32.6865 26.5647 32.616 26.4192Z" fill="black" fill-opacity="0.8"/>
</g>
<defs>
<clipPath id="clip0_1_9367">
<rect width="36" height="36.0002" fill="white" transform="translate(0 0.00195312)"/>
</clipPath>
</defs>
</svg>
