<svg width="13" height="7" viewBox="0 0 13 7" fill="none" xmlns="http://www.w3.org/2000/svg">
<mask id="path-1-inside-1_1_4210" fill="white">
<path d="M3.0536 6.51907L0 3.46547L0.615576 2.85874L3.06245 5.30562L3.26177 5.10631L3.86848 5.71304L3.0536 6.51907ZM6.30651 6.51907L3.25291 3.46547L3.85963 2.84989L6.30651 5.29677L11.6033 0L12.21 0.615577L6.30651 6.51907ZM6.1072 3.46547L5.49163 2.85874L8.34152 0.00885179L8.95709 0.615577L6.1072 3.46547Z"/>
</mask>
<path d="M3.0536 6.51907L0 3.46547L0.615576 2.85874L3.06245 5.30562L3.26177 5.10631L3.86848 5.71304L3.0536 6.51907ZM6.30651 6.51907L3.25291 3.46547L3.85963 2.84989L6.30651 5.29677L11.6033 0L12.21 0.615577L6.30651 6.51907ZM6.1072 3.46547L5.49163 2.85874L8.34152 0.00885179L8.95709 0.615577L6.1072 3.46547Z" fill="#484B48"/>
<path d="M3.0536 6.51907L2.34649 7.22618L3.04975 7.92943L3.75684 7.23003L3.0536 6.51907ZM0 3.46547L-0.701968 2.75326L-1.41935 3.46033L-0.707107 4.17257L0 3.46547ZM0.615576 2.85874L1.32268 2.15164L0.620679 1.44963L-0.0863912 2.14653L0.615576 2.85874ZM3.06245 5.30562L2.35535 6.01273L3.06243 6.71981L3.76953 6.01275L3.06245 5.30562ZM3.26177 5.10631L3.96889 4.39922L3.26181 3.69212L2.55469 4.39918L3.26177 5.10631ZM3.86848 5.71304L4.57172 6.424L5.28656 5.71692L4.5756 5.00594L3.86848 5.71304ZM6.30651 6.51907L5.5994 7.22618L6.30651 7.93328L7.01361 7.22618L6.30651 6.51907ZM3.25291 3.46547L2.5407 2.7635L1.84379 3.47057L2.5458 4.17257L3.25291 3.46547ZM3.85963 2.84989L4.56674 2.14278L3.85449 1.43054L3.14742 2.14792L3.85963 2.84989ZM6.30651 5.29677L5.5994 6.00387L6.30651 6.71098L7.01361 6.00387L6.30651 5.29677ZM11.6033 0L12.3155 -0.701968L11.6084 -1.41935L10.8962 -0.707107L11.6033 0ZM12.21 0.615577L12.9171 1.32268L13.6191 0.620679L12.9222 -0.0863909L12.21 0.615577ZM6.1072 3.46547L5.40523 4.17768L6.1123 4.87458L6.81431 4.17257L6.1072 3.46547ZM5.49163 2.85874L4.78452 2.15164L4.07227 2.86388L4.78966 3.57095L5.49163 2.85874ZM8.34152 0.00885179L9.04348 -0.703357L8.33641 -1.40026L7.63441 -0.698255L8.34152 0.00885179ZM8.95709 0.615577L9.6642 1.32268L10.3764 0.610437L9.65906 -0.0966323L8.95709 0.615577ZM3.76071 5.81196L0.707107 2.75836L-0.707107 4.17257L2.34649 7.22618L3.76071 5.81196ZM0.701968 4.17768L1.31754 3.57095L-0.0863912 2.14653L-0.701968 2.75326L0.701968 4.17768ZM-0.0915303 3.56585L2.35535 6.01273L3.76956 4.59851L1.32268 2.15164L-0.0915303 3.56585ZM3.76953 6.01275L3.96885 5.81345L2.55469 4.39918L2.35537 4.59849L3.76953 6.01275ZM2.55466 5.81341L3.16137 6.42014L4.5756 5.00594L3.96889 4.39922L2.55466 5.81341ZM3.16525 5.00208L2.35037 5.80811L3.75684 7.23003L4.57172 6.424L3.16525 5.00208ZM7.01361 5.81196L3.96001 2.75836L2.5458 4.17257L5.5994 7.22618L7.01361 5.81196ZM3.96511 4.16744L4.57184 3.55186L3.14742 2.14792L2.5407 2.7635L3.96511 4.16744ZM3.15252 3.557L5.5994 6.00387L7.01361 4.58966L4.56674 2.14278L3.15252 3.557ZM7.01361 6.00387L12.3104 0.707107L10.8962 -0.707107L5.5994 4.58966L7.01361 6.00387ZM10.8911 0.701968L11.4978 1.31754L12.9222 -0.0863909L12.3155 -0.701968L10.8911 0.701968ZM11.5029 -0.0915301L5.5994 5.81196L7.01361 7.22618L12.9171 1.32268L11.5029 -0.0915301ZM6.80917 2.75326L6.19359 2.14653L4.78966 3.57095L5.40523 4.17768L6.80917 2.75326ZM6.19873 3.56585L9.04862 0.715959L7.63441 -0.698255L4.78452 2.15164L6.19873 3.56585ZM7.63955 0.721061L8.25513 1.32779L9.65906 -0.0966323L9.04348 -0.703357L7.63955 0.721061ZM8.24999 -0.0915301L5.4001 2.75836L6.81431 4.17257L9.6642 1.32268L8.24999 -0.0915301Z" fill="black" mask="url(#path-1-inside-1_1_4210)"/>
</svg>
