<svg width="3" height="16" viewBox="0 0 3 16" fill="none" xmlns="http://www.w3.org/2000/svg">
<path d="M4.95255e-05 1.99995C4.95435e-05 1.58747 0.146924 1.23435 0.440675 0.9406C0.734425 0.646866 1.08754 0.5 1.50002 0.5C1.91251 0.5 2.26562 0.646866 2.55937 0.9406C2.85312 1.23435 3 1.58747 3 1.99995C3 2.41245 2.85312 2.76557 2.55937 3.0593C2.26562 3.35305 1.91251 3.49993 1.50002 3.49993C1.08754 3.49993 0.734424 3.35305 0.440674 3.0593C0.146924 2.76557 4.95075e-05 2.41245 4.95255e-05 1.99995ZM4.92733e-05 7.76917C4.92913e-05 7.35669 0.146924 7.00358 0.440674 6.70982C0.734424 6.41608 1.08754 6.2692 1.50002 6.2692C1.91251 6.2692 2.26562 6.41608 2.55937 6.70983C2.85312 7.00358 3 7.35669 3 7.76918C3 8.18166 2.85312 8.53478 2.55937 8.82853C2.26562 9.12228 1.91251 9.26915 1.50002 9.26915C1.08754 9.26915 0.734424 9.12228 0.440674 8.82853C0.146924 8.53478 4.92553e-05 8.18166 4.92733e-05 7.76917ZM4.90211e-05 13.5384C4.90392e-05 13.1259 0.146924 12.7728 0.440674 12.4791C0.734424 12.1853 1.08754 12.0384 1.50002 12.0384C1.91251 12.0384 2.26562 12.1853 2.55937 12.4791C2.85312 12.7728 3 13.1259 3 13.5384C3 13.9509 2.85312 14.304 2.55937 14.5978C2.26562 14.8915 1.91251 15.0384 1.50002 15.0384C1.08754 15.0384 0.734424 14.8915 0.440674 14.5978C0.146924 14.304 4.90031e-05 13.9509 4.90211e-05 13.5384Z" fill="#484B48"/>
</svg>
