<svg width="35" height="36" viewBox="0 0 35 36" fill="none" xmlns="http://www.w3.org/2000/svg">
<path d="M34.9903 18.2807C34.9903 17.0752 34.8736 15.8307 34.6792 14.6641H17.8403V21.5474H27.4847C27.0958 23.7641 25.8125 25.7085 23.9069 26.953L29.6625 31.4252C33.0458 28.2752 34.9903 23.6863 34.9903 18.2807Z" fill="#4280EF"/>
<path d="M17.8403 35.7033C22.6625 35.7033 26.7069 34.1089 29.6625 31.3867L23.9069 26.9533C22.3125 28.0422 20.2514 28.6645 17.8403 28.6645C13.1736 28.6645 9.24581 25.5145 7.80692 21.3145L1.89581 25.8645C4.92915 31.8922 11.0736 35.7033 17.8403 35.7033Z" fill="#34A353"/>
<path d="M7.80694 21.2751C7.06805 19.0585 7.06805 16.6474 7.80694 14.4307L1.89583 9.8418C-0.631944 14.8974 -0.631944 20.8474 1.89583 25.864L7.80694 21.2751Z" fill="#F6B704"/>
<path d="M17.8403 7.0809C20.368 7.04201 22.8569 8.01423 24.6847 9.76423L29.7791 4.6309C26.5514 1.59756 22.2736 -0.0357688 17.8403 0.00312013C11.0736 0.00312013 4.92915 3.81423 1.89581 9.84201L7.80692 14.4309C9.24581 10.192 13.1736 7.0809 17.8403 7.0809Z" fill="#E54335"/>
</svg>
