<svg width="12" height="12" viewBox="0 0 12 12" fill="none" xmlns="http://www.w3.org/2000/svg">
<path d="M6.87692 12C5.92308 12 5.04359 11.7841 4.23846 11.3523C3.43333 10.9205 2.78462 10.3409 2.29231 9.61364L0 6.23182L0.307692 5.95909C0.471795 5.81364 0.666667 5.73409 0.892308 5.72045C1.11795 5.70682 1.32308 5.75909 1.50769 5.87727L3.38462 7.10455V1.5C3.38462 1.39091 3.42821 1.29545 3.51538 1.21364C3.60256 1.13182 3.71282 1.09091 3.84615 1.09091C3.96923 1.09091 4.07692 1.13182 4.16923 1.21364C4.26154 1.29545 4.30769 1.39091 4.30769 1.5V8.7L1.55385 6.9L3.06154 9.13636C3.45128 9.76364 3.98462 10.2614 4.66154 10.6295C5.33846 10.9977 6.07692 11.1818 6.87692 11.1818C8.0359 11.1818 9.02564 10.8273 9.84615 10.1182C10.6667 9.40909 11.0769 8.54545 11.0769 7.52727V2.04545C11.0769 1.93636 11.1205 1.84091 11.2077 1.75909C11.2949 1.67727 11.4051 1.63636 11.5385 1.63636C11.6615 1.63636 11.7692 1.67727 11.8615 1.75909C11.9538 1.84091 12 1.93636 12 2.04545V7.52727C12 8.77273 11.5 9.82955 10.5 10.6977C9.5 11.5659 8.29231 12 6.87692 12ZM5.95385 5.86364V0.409091C5.95385 0.3 6 0.204545 6.09231 0.122727C6.18462 0.0409091 6.29231 0 6.41538 0C6.54872 0 6.65897 0.0409091 6.74615 0.122727C6.83333 0.204545 6.87692 0.3 6.87692 0.409091V5.86364H5.95385ZM8.52308 5.86364V0.954545C8.52308 0.845455 8.56667 0.75 8.65385 0.668182C8.74103 0.586364 8.85128 0.545455 8.98462 0.545455C9.10769 0.545455 9.21538 0.586364 9.30769 0.668182C9.4 0.75 9.44615 0.845455 9.44615 0.954545V5.86364H8.52308Z" fill="#484B48"/>
</svg>
