<?xml version="1.0" encoding="utf-8"?>
<!-- Generator: Adobe Illustrator 28.1.0, SVG Export Plug-In . SVG Version: 6.00 Build 0)  -->
<svg version="1.1" id="Layer_1" xmlns="http://www.w3.org/2000/svg" xmlns:xlink="http://www.w3.org/1999/xlink" x="0px" y="0px"
	 viewBox="0 0 464.5 136.7" style="enable-background:new 0 0 464.5 136.7;" xml:space="preserve">
<style type="text/css">
	.st0{display:none;}
	.st1{display:inline;fill:url(#SVGID_1_);}
	.st2{display:inline;fill:#EE453E;}
	.st3{display:inline;}
	.st4{fill:#EE453E;}
	.st5{fill:#FFFFFF;}
	.st6{fill:#ED453E;}
	.st7{fill-rule:evenodd;clip-rule:evenodd;fill:#06B5C9;}
	.st8{fill-rule:evenodd;clip-rule:evenodd;fill:#EF463E;}
	.st9{fill-rule:evenodd;clip-rule:evenodd;fill:#026671;}
	.st10{fill:none;stroke:#F44D03;stroke-miterlimit:10;}
	.st11{fill:#EF463E;}
	.st12{display:inline;fill:none;stroke:#F44D03;stroke-miterlimit:10;}
	.st13{fill:url(#SVGID_00000083781264760568360020000003084125366536489374_);}
	.st14{fill:url(#SVGID_00000129178215053081194200000004005532848614005653_);}
	.st15{fill:url(#SVGID_00000154407430647807133490000017327268333328186008_);}
</style>
<g class="st0">
	
		<linearGradient id="SVGID_1_" gradientUnits="userSpaceOnUse" x1="903.2919" y1="-149.762" x2="1233.3623" y2="-149.762" gradientTransform="matrix(-1 0 0 1 1297.2948 0)">
		<stop  offset="0" style="stop-color:#026671"/>
		<stop  offset="1" style="stop-color:#01B2C7"/>
	</linearGradient>
	<path class="st1" d="M471.5-95.9H38.1c0,0-0.1,0-0.1,0c-0.1,0-0.1,0-0.2,0c-0.1,0-0.2,0-0.3,0c-0.1,0-0.3,0-0.4,0
		c-0.3-0.1-0.7-0.1-1-0.3c-0.1,0-0.2-0.1-0.3-0.2c0,0,0,0,0,0c-0.4-0.2-0.7-0.4-1-0.6L-7-121.1c-0.2-0.1-0.4-0.3-0.6-0.4
		c-0.8-0.6-1.3-1.4-1.6-2.3c-0.2-0.6-0.2-0.8-0.2-1.4v-49c0,0,0-0.1,0-0.1c0-0.1,0-0.1,0-0.2c0-0.2,0-0.3,0-0.5
		c0.1-1,0.6-1.9,1.2-2.6c0.3-0.4,0.5-0.5,0.8-0.7c0.1-0.1,0.1-0.1,0.2-0.1c0,0,0.1,0,0.1-0.1L35.4-203c0.2-0.1,0.4-0.2,0.6-0.3
		c0.6-0.2,0.8-0.2,1.4-0.3c0.2,0,0.4,0,0.6,0c0.1,0,0.1,0,0.2,0h429.1c2.3,0,4.2,1.9,4.2,4.2v8.2 M75.4-164.3c0-0.7-0.8-1.2-1.4-0.8
		L53-153c-6.4,3.7-10.4,10.5-10.4,17.9v10.1c0,7,7.6,11.4,13.7,7.9l18-10.4c0.6-0.4,1.1-0.9,1.2-1.6 M35.3-191.8l-24.1,13.9
		c-2.8,1.6-2.8,5.6,0,7.2l0,0c1.5,0.9,3.4,0.9,5,0l24.1-13.9c2.8-1.6,2.8-5.6,0-7.2l0,0C38.8-192.7,36.9-192.7,35.3-191.8z
		 M40.3-156.8l24.1-13.9c2.8-1.6,2.8-5.6,0-7.2l0,0c-1.5-0.9-3.5-0.9-5,0L35.3-164c-2.8,1.6-2.8,5.6,0,7.2l0,0
		C36.9-155.9,38.8-155.9,40.3-156.8z M0.2-158.7l0,28.3c0,1.5,0.8,2.9,2.1,3.6l24.5,14.1c2.8,1.6,6.2-0.4,6.2-3.6v-28.3
		c0-1.5-0.8-2.9-2.1-3.6l-0.4-0.2c-2.8-1.6-6.2,0.4-6.2,3.6c0,2.1,0,4.1,0,6c0,3.2-3.5,5.2-6.2,3.6l-7-4c-1.3-0.7-2.1-2.1-2.1-3.6
		v-15.7c0-1.5-0.8-2.9-2.1-3.6l-0.4-0.2C3.7-163.9,0.2-161.9,0.2-158.7z"/>
	<path class="st2" d="M98.2-127.8v-49.8c0-3.3,2.7-6.1,6.1-6.1h19c11.1,0,16.7,7.8,16.7,15.5c0,6.6-5.2,13.1-12.9,13.1v0.3h0.6
		c9.5,0,14.8,7.3,14.9,14.6c0.1,8.7-5.5,18.3-19.8,18.3h-18.5C100.9-121.7,98.2-124.4,98.2-127.8z M120.5-159.8
		c7.4,0,8-12.1-0.4-12.1h-2.6c-3.3,0-6.1,2.7-6.1,6.1v0c0,3.3,2.7,6.1,6.1,6.1H120.5z M121.2-133.5c11,0,11.6-15.7,0.4-15.7h-4.2
		c-3.3,0-6.1,2.7-6.1,6.1v3.5c0,3.3,2.7,6.1,6.1,6.1H121.2z"/>
	<path class="st2" d="M147.6-124.5v-34.7c0-3.2,2.6-5.8,5.8-5.8h11.7c8.1,0,14.7,5.3,14.7,13.7c0,4.8-2.5,9.8-7.1,12.4
		c-1.4,0.8-1.9,2.5-1.1,3.8l4.2,7.3c1.6,2.7-0.4,6.1-3.5,6.1h-1.3c-1.9,0-3.6-1.1-4.3-2.9l-4.5-10.8c-0.4-1-1.4-1.7-2.5-1.6l0,0
		c-1.5,0-2.7,1.2-2.7,2.7c0,2.8-0.1,7-0.1,9.8c0,1.5-1.3,2.8-2.8,2.8h-3.6C148.8-121.7,147.6-123,147.6-124.5z M156.8-148.4
		c0,1.6,1.3,2.8,2.9,2.8l5.5-0.1c7.4,0,7.7-10.9-0.1-10.9h-5.4c-1.6,0-2.8,1.3-2.8,2.8V-148.4z"/>
	<path class="st2" d="M188.8-165L188.8-165c2.4,0,4.4,2,4.4,4.4v34.5c0,2.4-2,4.4-4.4,4.4l0,0c-2.4,0-4.4-2-4.4-4.4v-34.5
		C184.4-163.1,186.3-165,188.8-165z"/>
	<path class="st2" d="M199-126.3v-34.1c0-2.5,2.1-4.6,4.6-4.6h1.6c1.6,0,3.1,0.8,3.9,2.2l6.9,11.5c2.4,4,8.5,2.3,8.5-2.4v-6.8
		c0-2.5,2.1-4.6,4.6-4.6l0,0c2.5,0,4.6,2.1,4.6,4.6v34.1c0,2.5-2.1,4.6-4.6,4.6h-2.5c-1.6,0-3.1-0.9-4-2.3l-5.9-10
		c-2.4-4-8.5-2.3-8.5,2.3v5.3c0,2.5-2.1,4.6-4.6,4.6h-0.1C201-121.7,199-123.8,199-126.3z"/>
	<path class="st2" d="M258.3-165.6c6.5,0,11.3,3.7,13.8,8.3c0.8,1.5,0.2,3.5-1.3,4.2l-1.8,0.9c-1.5,0.7-3.2,0.2-4.1-1.2
		c-1.1-1.8-3.1-3.7-6.6-3.7c-6.4,0-11.1,5.2-11.1,13.7c0,8.5,4.6,14.2,11,14.2c1.9,0,3.4-0.3,4.7-0.9c0.6-0.2,0.9-0.8,0.9-1.4l0-5.2
		c0-0.9-0.7-1.6-1.6-1.6h-4.1c-1.7,0-3.1-1.4-3.1-3.1v-1.3c0-1.7,1.4-3.1,3.1-3.1h11.4c1.7,0,3.1,1.4,3.1,3.1v19.4
		c0,0.9-0.7,1.6-1.6,1.6h-5.7c-0.9,0-1.6-0.7-1.6-1.6l0,0c-2.1,1.4-4.7,1.9-7.3,1.9c-8.7,0-18.5-7.9-18.5-22.1
		C238.1-156.2,246.6-165.6,258.3-165.6z"/>
	<g class="st3">
		<path class="st4" d="M355-182.6h4.5c3.4,0,6.1,2.7,6.1,6.1v54.6c0,3.4-2.7,6.1-6.1,6.1h-0.1c-3.4,0-6.1-2.7-6.1-6.1V-148
			c0-5.7-7.1-8.3-10.8-3.9l-9.8,11.7c-2.4,2.9-6.9,2.9-9.4,0l-9.9-11.8c-3.7-4.4-10.8-1.8-10.8,3.9v26.1c0,3.4-2.7,6.1-6.1,6.1h0
			c-3.4,0-6.1-2.7-6.1-6.1v-54.6c0-3.4,2.7-6.1,6.1-6.1h4.4c1.8,0,3.5,0.8,4.7,2.2l17.8,21.2c2.5,2.9,6.9,2.9,9.4,0l17.7-21.2
			C351.5-181.8,353.2-182.6,355-182.6z"/>
	</g>
	<g class="st3">
		<path class="st5" d="M432.4-170.4h-36.8c-3.4,0-6.1,2.7-6.1,6.1v2.8c0,3.4,2.7,6.1,6.1,6.1h27.3c3.4,0,6.1,2.7,6.1,6.1v0
			c0,3.4-2.7,6.1-6.1,6.1h-27.3c-3.4,0-6.1,2.7-6.1,6.1v2.8c0,3.4,2.7,6.1,6.1,6.1h36.8c3.4,0,6.1,2.7,6.1,6.1v0
			c0,3.4-2.7,6.1-6.1,6.1h-49.2c-3.4,0-6.1-2.7-6.1-6.1v-54.6c0-3.4,2.7-6.1,6.1-6.1h49.2c3.4,0,6.1,2.7,6.1,6.1v0
			C438.5-173.1,435.8-170.4,432.4-170.4z"/>
	</g>
	<g class="st3">
		<g>
			<path class="st5" d="M97.4-128v-49.8c0-3.3,2.7-6.1,6.1-6.1h19c11.1,0,16.7,7.8,16.7,15.5c0,6.6-5.2,13.1-12.9,13.1v0.3h0.6
				c9.5,0,14.8,7.3,14.9,14.6c0.1,8.7-5.5,18.3-19.8,18.3h-18.5C100.1-121.9,97.4-124.6,97.4-128z M119.6-159.9
				c7.4,0,8-12.1-0.4-12.1h-2.6c-3.3,0-6.1,2.7-6.1,6.1v0c0,3.3,2.7,6.1,6.1,6.1H119.6z M120.4-133.7c11,0,11.6-15.7,0.4-15.7h-4.2
				c-3.3,0-6.1,2.7-6.1,6.1v3.5c0,3.3,2.7,6.1,6.1,6.1H120.4z"/>
			<path class="st5" d="M146.7-124.7v-34.7c0-3.2,2.6-5.8,5.8-5.8h11.7c8.1,0,14.7,5.3,14.7,13.7c0,4.8-2.5,9.8-7.1,12.4
				c-1.4,0.8-1.9,2.5-1.1,3.8l4.2,7.3c1.6,2.7-0.4,6.1-3.5,6.1H170c-1.9,0-3.6-1.1-4.3-2.9l-4.5-10.8c-0.4-1-1.4-1.7-2.5-1.6l0,0
				c-1.5,0-2.7,1.2-2.7,2.7c0,2.8-0.1,7-0.1,9.8c0,1.5-1.3,2.8-2.8,2.8h-3.6C148-121.9,146.7-123.2,146.7-124.7z M155.9-148.5
				c0,1.6,1.3,2.8,2.9,2.8l5.5-0.1c7.4,0,7.7-10.9-0.1-10.9h-5.4c-1.6,0-2.8,1.3-2.8,2.8V-148.5z"/>
			<path class="st5" d="M187.9-165.2L187.9-165.2c2.4,0,4.4,2,4.4,4.4v34.5c0,2.4-2,4.4-4.4,4.4h0c-2.4,0-4.4-2-4.4-4.4v-34.5
				C183.5-163.2,185.5-165.2,187.9-165.2z"/>
			<path class="st5" d="M198.1-126.5v-34.1c0-2.5,2.1-4.6,4.6-4.6h1.6c1.6,0,3.1,0.8,3.9,2.2l6.9,11.5c2.4,4,8.5,2.3,8.5-2.4v-6.8
				c0-2.5,2.1-4.6,4.6-4.6h0c2.5,0,4.6,2.1,4.6,4.6v34.1c0,2.5-2.1,4.6-4.6,4.6h-2.5c-1.6,0-3.1-0.9-4-2.3l-5.9-10
				c-2.4-4-8.5-2.3-8.5,2.3v5.3c0,2.5-2.1,4.6-4.6,4.6h-0.1C200.2-121.9,198.1-124,198.1-126.5z"/>
			<path class="st5" d="M257.4-165.8c6.5,0,11.3,3.7,13.8,8.3c0.8,1.5,0.2,3.5-1.3,4.2l-1.8,0.9c-1.5,0.7-3.2,0.2-4.1-1.2
				c-1.1-1.8-3.1-3.7-6.6-3.7c-6.4,0-11.1,5.2-11.1,13.7c0,8.5,4.6,14.2,11,14.2c1.9,0,3.4-0.3,4.7-0.9c0.6-0.2,0.9-0.8,0.9-1.4
				l0-5.2c0-0.9-0.7-1.6-1.6-1.6h-4.1c-1.7,0-3.1-1.4-3.1-3.1v-1.3c0-1.7,1.4-3.1,3.1-3.1h11.4c1.7,0,3.1,1.4,3.1,3.1v19.4
				c0,0.9-0.7,1.6-1.6,1.6h-5.7c-0.9,0-1.6-0.7-1.6-1.6l0,0c-2.1,1.4-4.7,1.9-7.3,1.9c-8.7,0-18.5-7.9-18.5-22.1
				C237.2-156.4,245.7-165.7,257.4-165.8z"/>
		</g>
	</g>
	<g class="st3">
		<path class="st5" d="M354.7-183.1h4.5c3.4,0,6.1,2.7,6.1,6.1v54.6c0,3.4-2.7,6.1-6.1,6.1h-0.1c-3.4,0-6.1-2.7-6.1-6.1v-26.1
			c0-5.7-7.1-8.3-10.8-3.9l-9.8,11.7c-2.4,2.9-6.9,2.9-9.4,0l-9.9-11.8c-3.7-4.4-10.8-1.8-10.8,3.9v26.1c0,3.4-2.7,6.1-6.1,6.1h0
			c-3.4,0-6.1-2.7-6.1-6.1v-54.6c0-3.4,2.7-6.1,6.1-6.1h4.4c1.8,0,3.5,0.8,4.7,2.2l17.8,21.2c2.5,2.9,6.9,2.9,9.4,0l17.7-21.2
			C351.2-182.3,352.9-183.1,354.7-183.1z"/>
	</g>
	<g class="st3">
		<path class="st6" d="M431.6-170.8h-36.8c-3.4,0-6.1,2.7-6.1,6.1v2.8c0,3.4,2.7,6.1,6.1,6.1H422c3.4,0,6.1,2.7,6.1,6.1v0
			c0,3.4-2.7,6.1-6.1,6.1h-27.3c-3.4,0-6.1,2.7-6.1,6.1v2.8c0,3.4,2.7,6.1,6.1,6.1h36.8c3.4,0,6.1,2.7,6.1,6.1v0
			c0,3.4-2.7,6.1-6.1,6.1h-49.2c-3.4,0-6.1-2.7-6.1-6.1v-54.6c0-3.4,2.7-6.1,6.1-6.1h49.2c3.4,0,6.1,2.7,6.1,6.1v0
			C437.7-173.6,434.9-170.8,431.6-170.8z"/>
	</g>
</g>
<g>
	<g>
		<path d="M46.7,34.6c1.9,2.5,2.9,5.7,2.9,9.6c0,6.8-2,11.6-5.9,14.3c-3.9,2.7-8.6,4-13.9,4H8.3c-1.5,0-2.7-0.5-3.7-1.5
			c-1-1-1.5-2.3-1.5-3.7V7.5c0-1.5,0.5-2.7,1.5-3.7c1-1,2.3-1.5,3.7-1.5H30c10.9,0,16.4,5.1,16.4,15.3c0,2.6-0.6,4.9-1.9,6.8
			c-1.2,2-3,3.5-5.3,4.7C42.3,30.3,44.8,32.2,46.7,34.6z M33.4,14.2c-1.2-1.2-2.8-1.8-4.9-1.8H14.3v13.4h14.5c1.7,0,3.2-0.6,4.5-1.7
			c1.3-1.1,1.9-2.7,1.9-4.6C35.2,17.1,34.6,15.4,33.4,14.2z M36.1,50.5c1.5-1.4,2.3-3.5,2.3-6.3c0-3.4-0.9-5.6-2.7-6.6
			c-1.8-1-4-1.5-6.5-1.5H14.3v16.6h15.5C32.5,52.6,34.6,51.9,36.1,50.5z"/>
		<path d="M86.9,17.1c1.2,1,1.8,2.1,1.8,3.4c0,1.8-0.5,3.1-1.4,4c-0.9,0.9-2,1.3-3.3,1.3c-0.9,0-1.8-0.2-2.9-0.6
			c-0.2-0.1-0.6-0.2-1.2-0.3s-1.2-0.3-1.9-0.3c-1.5,0-2.9,0.5-4.3,1.4c-1.4,0.9-2.5,2.3-3.4,4.2c-0.9,1.9-1.3,4.1-1.3,6.7v20.4
			c0,1.5-0.5,2.7-1.5,3.7c-1,1-2.2,1.5-3.7,1.5c-1.5,0-2.7-0.5-3.7-1.5c-1-1-1.5-2.3-1.5-3.7V21.7c0-1.5,0.5-2.7,1.5-3.7
			c1-1,2.2-1.5,3.7-1.5c1.5,0,2.7,0.5,3.7,1.5c1,1,1.5,2.3,1.5,3.7v1.1c1.3-2.4,3.2-4.1,5.7-5.4c2.5-1.2,5.1-1.9,7.9-1.9
			C84.3,15.6,85.7,16.1,86.9,17.1z"/>
		<path d="M96.3,9.9c-0.8-0.6-1.2-1.8-1.2-3.4V4.9c0-1.6,0.4-2.7,1.3-3.4c0.9-0.6,2.2-0.9,4.1-0.9c2,0,3.4,0.3,4.2,0.9
			c0.8,0.6,1.2,1.8,1.2,3.4v1.6c0,1.7-0.4,2.8-1.2,3.4c-0.8,0.6-2.3,0.9-4.3,0.9C98.5,10.9,97.1,10.6,96.3,9.9z M104.2,61
			c-1,1-2.2,1.5-3.7,1.5c-1.5,0-2.7-0.5-3.7-1.5c-1-1-1.5-2.3-1.5-3.7V21.7c0-1.5,0.5-2.7,1.5-3.7c1-1,2.2-1.5,3.7-1.5
			c1.5,0,2.7,0.5,3.7,1.5c1,1,1.5,2.3,1.5,3.7v35.6C105.7,58.8,105.2,60,104.2,61z"/>
		<path d="M153,20.8c2.2,3.5,3.4,8.3,3.4,14.4v22c0,1.5-0.5,2.7-1.5,3.7c-1,1-2.2,1.5-3.7,1.5c-1.5,0-2.7-0.5-3.7-1.5
			c-1-1-1.5-2.3-1.5-3.7v-22c0-3.2-0.7-5.6-2-7.4c-1.3-1.8-3.6-2.7-6.8-2.7c-3.3,0-5.9,1-7.8,2.9c-1.9,1.9-2.8,4.3-2.8,7.3v22
			c0,1.5-0.5,2.7-1.5,3.7c-1,1-2.2,1.5-3.7,1.5c-1.5,0-2.7-0.5-3.7-1.5c-1-1-1.5-2.3-1.5-3.7V21.7c0-1.5,0.5-2.7,1.5-3.7
			c1-1,2.2-1.5,3.7-1.5c1.5,0,2.7,0.5,3.7,1.5c1,1,1.5,2.3,1.5,3.7v1.5c1.5-2.1,3.6-3.8,6.1-5.3c2.5-1.5,5.2-2.2,8.2-2.2
			C146.7,15.6,150.8,17.3,153,20.8z"/>
		<path d="M209.4,17.1c1,1,1.5,2.2,1.5,3.8v38.3c0,7-2.2,12.2-6.5,15.5c-4.3,3.4-9.8,5-16.5,5c-1.7,0-4.1-0.3-7.1-0.9
			c-3-0.6-5.2-1.1-6.4-1.7c-2.8-1.2-4.2-2.9-4.2-5c0-0.4,0.1-0.9,0.3-1.4c0.3-1.3,0.9-2.2,1.8-2.9c0.8-0.7,1.7-1,2.7-1
			c0.6,0,1.1,0.1,1.6,0.3c0.2,0.1,1.6,0.6,4.3,1.6c2.6,1,5,1.5,7.1,1.5c4.2,0,7.4-0.8,9.5-2.5c2.1-1.7,3.1-4.1,3.1-7.2v-4.1
			c-1.3,1.8-3.2,3.4-5.7,4.8c-2.6,1.4-5.3,2.2-8.2,2.2c-4,0-7.7-1-11-3.1c-3.3-2-5.9-4.9-7.8-8.5c-1.9-3.6-2.8-7.7-2.8-12.3
			c0-4.6,0.9-8.7,2.8-12.4c1.9-3.6,4.4-6.5,7.7-8.5c3.2-2,6.8-3.1,10.8-3.1c2.9,0,5.7,0.6,8.2,1.8c2.5,1.2,4.6,2.7,6.1,4.4v-0.9
			c0-1.5,0.5-2.7,1.5-3.7c1-1,2.2-1.5,3.7-1.5C207.2,15.6,208.4,16.1,209.4,17.1z M197.3,49.8c2.4-2.7,3.7-6.2,3.7-10.3
			c0-4.1-1.2-7.6-3.7-10.3c-2.4-2.8-5.6-4.1-9.4-4.1c-3.8,0-7,1.4-9.4,4.1c-2.4,2.8-3.6,6.2-3.6,10.3c0,4.1,1.2,7.6,3.6,10.3
			c2.4,2.7,5.5,4.1,9.4,4.1C191.7,53.9,194.9,52.5,197.3,49.8z"/>
	</g>
	<g>
		<path d="M404.8,3.7c1.1,1,1.6,2.3,1.6,3.7v49.8c0,1.5-0.5,2.7-1.5,3.7c-1,1-2.3,1.5-3.9,1.5c-1.6,0-2.9-0.5-3.9-1.5
			c-1-1-1.5-2.2-1.5-3.8V22.6l-14.2,21.7c-0.6,0.7-1.2,1.2-2,1.7c-0.7,0.4-1.5,0.6-2.3,0.6c-0.7,0.1-1.5-0.1-2.2-0.6
			c-0.7-0.4-1.4-1-2-1.7l-14.2-22.5v35.5c0,1.5-0.5,2.8-1.4,3.8c-0.9,1-2.1,1.5-3.6,1.5c-1.4,0-2.6-0.5-3.5-1.5
			c-0.9-1-1.4-2.3-1.4-3.7V7.4c0-1.4,0.5-2.7,1.6-3.7c1.1-1,2.3-1.5,3.8-1.5c0.9,0,1.7,0.2,2.6,0.6c0.9,0.4,1.5,1,2,1.7l18.8,28.8
			l19.3-28.8c0.5-0.7,1.1-1.2,1.9-1.7c0.8-0.4,1.6-0.6,2.4-0.6C402.4,2.2,403.7,2.7,404.8,3.7z"/>
		<path d="M458.1,41.8c-1,0.9-2.2,1.3-3.6,1.3h-28.4c0.7,3.4,2.3,6,4.7,8c2.5,1.9,5.3,2.9,8.4,2.9c2.4,0,4.2-0.2,5.5-0.6
			c1.3-0.4,2.4-0.9,3.1-1.4c0.8-0.5,1.3-0.8,1.6-1c1-0.5,2-0.8,2.9-0.8c1.2,0,2.2,0.4,3.1,1.3s1.3,1.9,1.3,3c0,1.5-0.8,3-2.4,4.2
			c-1.6,1.3-3.8,2.4-6.5,3.4c-2.7,0.9-5.4,1.4-8.2,1.4c-4.8,0-9-1-12.6-3c-3.6-2-6.4-4.8-8.3-8.3c-2-3.5-2.9-7.5-2.9-11.9
			c0-4.9,1-9.3,3.1-13c2.1-3.7,4.8-6.6,8.2-8.6c3.4-2,7-3,10.8-3c3.8,0,7.4,1,10.7,3.1c3.4,2.1,6,4.9,8,8.3c2,3.5,3,7.3,3,11.4
			C459.7,39.8,459.1,40.9,458.1,41.8z M426.1,34.5h22.6v-0.6c-0.2-2.4-1.4-4.5-3.5-6.2c-2.1-1.7-4.5-2.6-7.2-2.6
			C431.3,25.1,427.3,28.2,426.1,34.5z"/>
	</g>
	<g>
		<g>
			<path class="st7" d="M298.1,1.5c0.2,0.1,0.5,0.2,0.6,0.2c7.5,4.6,14.8,9.1,22.2,13.7c1.2,0.8,2.4,1.5,3.7,2.2
				c0.7,0.5,0.7,0.7,0.1,1.2c-2.3,1.9-4.6,3.7-6.8,5.6c-3,2.5-6,4.9-9,7.3c-0.8,0.6-0.8,0.6-1.7,0.1c-6.5-3.9-13-7.9-19.5-11.9
				c-2.1-1.3-4.1-2.6-6.2-3.8c-0.8-0.5-0.8-0.7-0.1-1.3c3.8-3.1,7.6-6.2,11.4-9.4c1.5-1.2,3-2.5,4.5-3.8
				C297.4,1.7,297.7,1.5,298.1,1.5z"/>
			<path class="st8" d="M261,1.5c0.4-0.1,0.6,0.1,0.8,0.2c2.8,2.3,5.6,4.7,8.4,7c2.5,2.1,5,4,7.3,6.1c0.1,0,0.2,0.1,0.4,0.2
				c0.4,0.5,0.4,0.7-0.1,1c-1.7,1.2-3.5,2.2-5.3,3.2c-6.8,4.3-13.7,8.4-20.5,12.6c-1,0.5-1,0.6-1.8-0.1c-3.2-2.6-6.2-5.2-9.5-7.8
				c-2.1-1.6-4-3.4-6-4.9c-0.1-0.1-0.2-0.1-0.3-0.1c-0.8-0.8-0.8-0.8,0.2-1.4C243.1,12.5,251.6,7.2,260,2
				C260.4,1.8,260.7,1.6,261,1.5z"/>
			<path class="st8" d="M308.1,35.2c0.3,0,0.5,0.2,0.6,0.3c2.8,2.4,5.6,4.7,8.4,7c2.1,1.8,4.2,3.7,6.4,5.4c0.7,0.5,0.7,0.8-0.1,1.2
				c-7.6,4.5-15.3,8.9-22.9,13.5c-0.8,0.4-1.4,0.8-2.2,1.2c-0.3,0.2-0.7,0.2-1.1-0.2c-2.2-1.9-4.2-3.6-6.4-5.5
				c-2.5-2.2-5.1-4.4-7.6-6.5c-0.8-0.8-0.8-0.8,0.1-1.4c7.9-4.8,15.8-9.6,23.7-14.4C307.3,35.5,307.8,35.4,308.1,35.2z"/>
			<path class="st7" d="M261.1,63.9c-0.1-0.1-0.3-0.1-0.5-0.2c-8.2-4.8-16.5-9.6-24.8-14.5c-0.1,0-0.1-0.1-0.1-0.1
				c-0.6-0.4-0.6-0.6-0.1-1.1c1.1-1,2.3-1.9,3.4-2.9c3-2.5,6-5,9-7.6c0.8-0.6,1.6-1.3,2.3-2c0.5-0.4,0.8-0.3,1.2,0
				c2.1,1.3,4.2,2.5,6.2,3.8c6,3.7,12,7.3,17.9,10.9c0.1,0.1,0.1,0.1,0.2,0.1c0.6,0.4,0.6,0.5,0.1,0.9c-1.2,1.1-2.3,2.1-3.5,3
				c-2.4,2.1-4.8,4.1-7.1,6.2c-1.2,1.1-2.4,2.1-3.6,3.2C261.6,63.7,261.5,63.9,261.1,63.9z"/>
			<path class="st9" d="M280.5,67.5c0-4.6,0-9.3,0-13.9c0-0.1,0-0.4,0-0.4c0-0.2-0.1-0.5,0.2-0.6c0.2-0.1,0.5,0.1,0.7,0.2
				c1.3,1.2,2.6,2.1,3.9,3.2c3.2,2.7,6.4,5.3,9.7,7.9c0.9,0.7,1.8,1.4,2.5,2.1c0.6,0.4,0.9,0.5,1.4,0.2c2.5-1.3,5-2.8,7.4-4.1
				c0.6-0.3,0.9-0.1,0.9,0.5c0,1.2,0,2.3,0,3.5c0,0.5-0.1,0.8-0.5,1.1c-4.5,2.7-9,5.4-13.4,8.1c-3.9,2.4-7.7,4.8-11.6,7.2
				c-0.3,0.2-0.6,0.5-0.9,0.3c-0.3-0.1-0.2-0.6-0.2-0.9C280.5,77,280.5,72.3,280.5,67.5z"/>
			<path class="st9" d="M278.5,67.5c0,4.6,0,9.3,0,14c0,0.2,0,0.4,0,0.5c0,0.7-0.3,0.8-0.8,0.4c-3.8-2.3-7.7-4.7-11.5-7
				c-4.4-2.8-8.9-5.5-13.2-8.2c-0.6-0.3-0.8-0.7-0.8-1.3c0.1-1,0.1-2.1,0.1-3.2c0-0.8,0.1-1,0.9-0.5c2.5,1.3,5,2.7,7.4,4
				c0.4,0.2,0.7,0.1,1.1-0.2c4.1-3.3,8.2-6.7,12.2-10c1.2-1,2.5-2,3.6-2.9c0.2-0.2,0.4-0.3,0.6-0.5c0.3-0.1,0.4-0.1,0.5,0.2
				c0,0.3,0,0.4,0,0.7C278.5,58.1,278.5,62.8,278.5,67.5z"/>
		</g>
	</g>
	<path class="st10" d="M363,143.6"/>
	<g>
		<g>
			<path class="st11" d="M355.6,95.7c-33.4,29.7-78.8,43.8-121.8,38.8c-43-5-82.5-28.9-106.6-63.2c26.6,32.3,66.9,52,107.3,53.5
				c40.4,1.6,80.7-15,107.7-43.1L355.6,95.7z"/>
			<g>
				<polygon class="st11" points="326.3,75.8 374.9,63.9 360.9,111.9 				"/>
			</g>
		</g>
	</g>
</g>
<g class="st0">
	
		<text transform="matrix(1 0 0 1 8.9706 307.0813)" style="display:inline;fill:#FFFFFF; font-family:'Quicksand-Bold'; font-size:86.0827px;">Bring</text>
	
		<text transform="matrix(1 0 0 1 354.6484 307.0813)" style="display:inline;fill:#FFFFFF; font-family:'Quicksand-Bold'; font-size:86.0827px;">Me</text>
	<g class="st3">
		<g>
			<path class="st7" d="M310.4,246c0.2,0.1,0.5,0.2,0.6,0.2c7.5,4.6,14.8,9.1,22.2,13.7c1.2,0.8,2.4,1.5,3.7,2.2
				c0.7,0.5,0.7,0.7,0.1,1.2c-2.3,1.9-4.6,3.7-6.8,5.6c-3,2.5-6,4.9-9,7.3c-0.8,0.6-0.8,0.6-1.7,0.1c-6.5-3.9-13-7.9-19.5-11.9
				c-2.1-1.3-4.1-2.6-6.2-3.8c-0.8-0.5-0.8-0.7-0.1-1.3c3.8-3.1,7.6-6.2,11.4-9.4c1.5-1.2,3-2.5,4.5-3.8
				C309.8,246.2,310.1,246,310.4,246z"/>
			<path class="st8" d="M273.4,246.1c0.4-0.1,0.6,0.1,0.8,0.2c2.8,2.3,5.6,4.7,8.4,7c2.5,2.1,5,4,7.3,6.1c0.1,0,0.2,0.1,0.4,0.2
				c0.4,0.5,0.4,0.7-0.1,1c-1.7,1.2-3.5,2.2-5.3,3.2c-6.8,4.3-13.7,8.4-20.5,12.6c-1,0.5-1,0.6-1.8-0.1c-3.2-2.6-6.2-5.2-9.5-7.8
				c-2.1-1.6-4-3.4-6-4.9c-0.1-0.1-0.2-0.1-0.3-0.1c-0.8-0.8-0.8-0.8,0.2-1.4c8.4-5.2,16.9-10.4,25.4-15.7
				C272.8,246.3,273,246.2,273.4,246.1z"/>
			<path class="st8" d="M320.4,279.7c0.3,0,0.5,0.2,0.6,0.3c2.8,2.4,5.6,4.7,8.4,7c2.1,1.8,4.2,3.7,6.4,5.4c0.7,0.5,0.7,0.8-0.1,1.2
				c-7.6,4.5-15.3,8.9-22.9,13.5c-0.8,0.4-1.4,0.8-2.2,1.2c-0.3,0.2-0.7,0.2-1.1-0.2c-2.2-1.9-4.2-3.6-6.4-5.5
				c-2.5-2.2-5.1-4.4-7.6-6.5c-0.8-0.8-0.8-0.8,0.1-1.4c7.9-4.8,15.8-9.6,23.7-14.4C319.7,280.1,320.1,280,320.4,279.7z"/>
			<path class="st7" d="M273.5,308.4c-0.1-0.1-0.3-0.1-0.5-0.2c-8.2-4.8-16.5-9.6-24.8-14.5c-0.1,0-0.1-0.1-0.1-0.1
				c-0.6-0.4-0.6-0.6-0.1-1.1c1.1-1,2.3-1.9,3.4-2.9c3-2.5,6-5,9-7.6c0.8-0.6,1.6-1.3,2.3-2c0.5-0.4,0.8-0.3,1.2,0
				c2.1,1.3,4.2,2.5,6.2,3.8c6,3.7,12,7.3,17.9,10.9c0.1,0.1,0.1,0.1,0.2,0.1c0.6,0.4,0.6,0.5,0.1,0.9c-1.2,1.1-2.3,2.1-3.5,3
				c-2.4,2.1-4.8,4.1-7.1,6.2c-1.2,1.1-2.4,2.1-3.6,3.2C274,308.3,273.9,308.4,273.5,308.4z"/>
			<path class="st9" d="M292.9,312.1c0-4.6,0-9.3,0-13.9c0-0.1,0-0.4,0-0.4c0-0.2-0.1-0.5,0.2-0.6c0.2-0.1,0.5,0.1,0.7,0.2
				c1.3,1.2,2.6,2.1,3.9,3.2c3.2,2.7,6.4,5.3,9.7,7.9c0.9,0.7,1.8,1.4,2.5,2.1c0.6,0.4,0.9,0.5,1.4,0.2c2.5-1.3,5-2.8,7.4-4.1
				c0.6-0.3,0.9-0.1,0.9,0.5c0,1.2,0,2.3,0,3.5c0,0.5-0.1,0.8-0.5,1.1c-4.5,2.7-9,5.4-13.4,8.1c-3.9,2.4-7.7,4.8-11.6,7.2
				c-0.3,0.2-0.6,0.5-0.9,0.3c-0.3-0.1-0.2-0.6-0.2-0.9C292.9,321.5,292.9,316.9,292.9,312.1z"/>
			<path class="st9" d="M290.9,312.1c0,4.6,0,9.3,0,14c0,0.2,0,0.4,0,0.5c0,0.7-0.3,0.8-0.8,0.4c-3.8-2.3-7.7-4.7-11.5-7
				c-4.4-2.8-8.9-5.5-13.2-8.2c-0.6-0.3-0.8-0.7-0.8-1.3c0.1-1,0.1-2.1,0.1-3.2c0-0.8,0.1-1,0.9-0.5c2.5,1.3,5,2.7,7.4,4
				c0.4,0.2,0.7,0.1,1.1-0.2c4.1-3.3,8.2-6.7,12.2-10c1.2-1,2.5-2,3.6-2.9c0.2-0.2,0.4-0.3,0.6-0.5c0.3-0.1,0.4-0.1,0.5,0.2
				c0,0.3,0,0.4,0,0.7C290.9,302.7,290.9,307.4,290.9,312.1z"/>
		</g>
	</g>
	<path class="st12" d="M375.3,388.1"/>
	<g class="st3">
		<g>
			<path class="st11" d="M367.9,340.3c-33.4,29.7-78.8,43.8-121.8,38.8c-43-5-82.5-28.9-106.6-63.2c26.6,32.3,66.9,52,107.3,53.5
				c40.4,1.6,80.7-15,107.7-43.1L367.9,340.3z"/>
			<g>
				<polygon class="st11" points="338.7,320.3 387.2,308.4 373.3,356.5 				"/>
			</g>
		</g>
	</g>
</g>
<g class="st0">
	
		<text transform="matrix(1 0 0 1 75.2119 286.8604)" style="display:inline;fill:#231F20; font-family:'Quicksand-Bold'; font-size:63.7868px;">Bring</text>
	<text transform="matrix(1 0 0 1 331.3569 286.8604)" class="st3" style="font-family:'Quicksand-Bold'; font-size:63.7868px;">Me</text>
	<g class="st3">
		<g>
			<path class="st7" d="M298.6,241.6c0.2,0,0.4,0.1,0.5,0.2c5.5,3.4,11,6.8,16.5,10.2c0.9,0.6,1.8,1.1,2.7,1.7
				c0.5,0.3,0.5,0.5,0.1,0.9c-1.7,1.4-3.4,2.8-5.1,4.1c-2.2,1.9-4.4,3.6-6.7,5.4c-0.6,0.5-0.6,0.5-1.3,0c-4.8-2.9-9.6-5.9-14.5-8.8
				c-1.5-0.9-3.1-1.9-4.6-2.8c-0.6-0.3-0.6-0.5-0.1-1c2.8-2.3,5.7-4.6,8.5-7c1.1-0.9,2.2-1.9,3.3-2.8
				C298.1,241.8,298.3,241.6,298.6,241.6z"/>
			<path class="st8" d="M271.1,241.7c0.3,0,0.4,0.1,0.6,0.2c2.1,1.7,4.2,3.5,6.2,5.2c1.9,1.5,3.7,3,5.4,4.5c0.1,0,0.2,0.1,0.3,0.1
				c0.3,0.3,0.3,0.5-0.1,0.7c-1.3,0.9-2.6,1.6-3.9,2.4c-5,3.2-10.1,6.3-15.2,9.4c-0.7,0.4-0.7,0.4-1.3,0c-2.3-2-4.6-3.9-7-5.8
				c-1.6-1.2-3-2.5-4.5-3.6c0,0-0.1-0.1-0.2-0.1c-0.6-0.6-0.6-0.6,0.1-1c6.2-3.9,12.5-7.7,18.8-11.6
				C270.7,241.9,270.9,241.7,271.1,241.7z"/>
			<path class="st8" d="M306,266.6c0.2,0,0.3,0.1,0.4,0.2c2.1,1.8,4.1,3.5,6.2,5.2c1.6,1.3,3.1,2.7,4.7,4c0.5,0.4,0.5,0.6-0.1,0.9
				c-5.7,3.3-11.3,6.6-17,10c-0.6,0.3-1,0.6-1.6,0.9c-0.2,0.2-0.5,0.2-0.8-0.2c-1.6-1.4-3.1-2.7-4.8-4.1c-1.9-1.7-3.8-3.3-5.6-4.8
				c-0.6-0.6-0.6-0.6,0.1-1c5.8-3.5,11.7-7.1,17.5-10.7C305.4,266.9,305.8,266.8,306,266.6z"/>
			<path class="st7" d="M271.2,287.9c-0.1,0-0.2-0.1-0.4-0.2c-6.1-3.6-12.2-7.1-18.4-10.7c0,0-0.1-0.1-0.1-0.1
				c-0.5-0.3-0.5-0.5-0.1-0.8c0.8-0.7,1.7-1.4,2.5-2.1c2.2-1.9,4.4-3.7,6.7-5.6c0.6-0.5,1.2-1,1.7-1.5c0.3-0.3,0.6-0.2,0.9,0
				c1.5,1,3.1,1.8,4.6,2.8c4.4,2.7,8.9,5.4,13.3,8.1c0,0,0.1,0.1,0.2,0.1c0.4,0.3,0.4,0.4,0,0.7c-0.9,0.8-1.7,1.5-2.6,2.2
				c-1.8,1.5-3.5,3-5.3,4.6c-0.9,0.8-1.8,1.6-2.7,2.4C271.6,287.8,271.5,287.9,271.2,287.9z"/>
			<path class="st9" d="M285.6,290.6c0-3.4,0-6.9,0-10.3c0-0.1,0-0.3,0-0.3c0-0.1-0.1-0.4,0.2-0.5c0.1-0.1,0.3,0.1,0.5,0.1
				c0.9,0.9,2,1.6,2.9,2.4c2.4,2,4.8,3.9,7.2,5.9c0.7,0.5,1.3,1,1.8,1.6c0.4,0.3,0.7,0.3,1,0.1c1.8-1,3.7-2,5.5-3.1
				c0.4-0.2,0.6-0.1,0.6,0.4c0,0.9,0,1.7,0,2.6c0,0.4-0.1,0.6-0.4,0.8c-3.3,2-6.6,4-9.9,6c-2.9,1.8-5.7,3.5-8.6,5.3
				c-0.2,0.1-0.4,0.4-0.6,0.2c-0.2-0.1-0.2-0.4-0.2-0.7C285.6,297.6,285.6,294.1,285.6,290.6z"/>
			<path class="st9" d="M284.1,290.6c0,3.4,0,6.9,0,10.4c0,0.1,0,0.3,0,0.4c0,0.5-0.2,0.6-0.6,0.3c-2.8-1.7-5.7-3.5-8.5-5.2
				c-3.2-2.1-6.6-4.1-9.8-6.1c-0.5-0.3-0.6-0.5-0.6-1c0-0.8,0-1.6,0-2.4c0-0.6,0.1-0.7,0.7-0.4c1.8,1,3.7,2,5.5,3
				c0.3,0.2,0.5,0.1,0.8-0.1c3.1-2.5,6-5,9.1-7.4c0.9-0.7,1.8-1.5,2.7-2.2c0.1-0.1,0.3-0.3,0.5-0.3c0.2-0.1,0.3,0,0.4,0.1
				c0,0.2,0,0.3,0,0.5C284.1,283.6,284.1,287.1,284.1,290.6z"/>
		</g>
	</g>
	<g class="st3">
		<g>
			
				<linearGradient id="SVGID_00000064334786611511323880000014247422339420685445_" gradientUnits="userSpaceOnUse" x1="143.1357" y1="318.304" x2="354.8572" y2="318.304">
				<stop  offset="0" style="stop-color:#000000"/>
				<stop  offset="1" style="stop-color:#026671"/>
			</linearGradient>
			<path style="fill:url(#SVGID_00000064334786611511323880000014247422339420685445_);" d="M343.4,307.9
				c-2.6,5.6-10.9,12.6-17.7,16.2c-6.8,3.7-14.9,5.2-23.3,6.2c-8.5,1-17.4-0.3-26.3-1.4c-8.6-1.1-16.4-3.9-26.3-6.7
				c-17.4-4.9-34.5-13.4-52.7-17.6c-9.1-2.1-18.5-3.5-28-3.8c-9.5-0.3-17,0.6-25.9,3c9-2,16.5-2.3,25.7-1.5
				c9.2,0.8,18.2,2.7,26.9,5.2c17.4,5,33.6,12.4,51,18.4c8.7,3,17.8,5.7,27.3,7.5c9.5,1.8,19.5,2.7,29.6,2.1
				c10.2-0.7,20.3-3.1,29.4-7.3c9-4.2,17.1-10.5,21.8-18.5L343.4,307.9z"/>
			<g>
				
					<linearGradient id="SVGID_00000183949798320996136700000007138893670541677194_" gradientUnits="userSpaceOnUse" x1="336.2523" y1="306.8655" x2="358.9094" y2="306.1711">
					<stop  offset="0" style="stop-color:#06B5C9"/>
					<stop  offset="0.3867" style="stop-color:#026671"/>
				</linearGradient>
				<path style="fill:url(#SVGID_00000183949798320996136700000007138893670541677194_);" d="M358.9,314.7l-0.9-17
					c-0.1-1.3-1.4-2-2.5-1.5l-18.2,8.4c-1.4,0.6-1.4,2.6,0,3.2l19.1,8.6C357.6,316.9,359,316,358.9,314.7z"/>
			</g>
		</g>
		
			<linearGradient id="SVGID_00000057134190281200817630000006758497819598251922_" gradientUnits="userSpaceOnUse" x1="270.9651" y1="328.8592" x2="340.9414" y2="328.8592" gradientTransform="matrix(0.9999 -1.312467e-02 1.312467e-02 0.9999 3.2657 6.9701)">
			<stop  offset="0" style="stop-color:#026671"/>
			<stop  offset="0.6621" style="stop-color:#06B5C9"/>
		</linearGradient>
		<path style="fill:url(#SVGID_00000057134190281200817630000006758497819598251922_);" d="M348.4,322c-4,4-9.1,7.1-14.5,9.6
			c-5.4,2.4-11.3,4.1-17.4,5.3l-4.6,0.8l-4.7,0.5l-2.3,0.3l-2.4,0.1c-1.6,0.1-3.2,0.1-4.7,0.2c-3.2,0-6.3,0-9.5,0
			c-3.2-0.1-6.4-0.3-9.6-0.3c3.1,0.7,6.3,1.2,9.4,1.8c3.2,0.3,6.4,0.7,9.7,0.9c1.6,0,3.3,0.1,4.9,0l2.5,0l2.5-0.2l4.9-0.4l4.9-0.8
			c6.4-1.2,12.7-3.2,18.2-6.2C340.9,330.6,345.7,326.7,348.4,322z"/>
	</g>
</g>
</svg>
