<svg width="51" height="50" viewBox="0 0 51 50" fill="none" xmlns="http://www.w3.org/2000/svg">
<path d="M24.2743 39.1828H27.1188V36.6588C28.7347 36.4397 30.1977 35.8328 31.5078 34.8378C32.8179 33.8429 33.473 32.3345 33.473 30.3126C33.473 28.8543 33.0429 27.5642 32.1829 26.4425C31.3229 25.3206 29.6429 24.3084 27.1429 23.4056C24.9527 22.6577 23.4983 22.01 22.7798 21.4625C22.0614 20.9149 21.7021 20.1497 21.7021 19.1668C21.7021 18.1839 22.0701 17.3852 22.8059 16.7709C23.5418 16.1566 24.5574 15.8494 25.8528 15.8494C26.9372 15.8494 27.812 16.1052 28.477 16.6167C29.1421 17.1282 29.6536 17.7699 30.0115 18.5417L32.5835 17.5081C32.1482 16.3997 31.4383 15.4508 30.4541 14.6616C29.4699 13.8723 28.3928 13.4323 27.223 13.3415V10.8175H24.3785V13.3415C22.6023 13.6833 21.2381 14.4038 20.2859 15.5029C19.3337 16.602 18.8577 17.8233 18.8577 19.1668C18.8577 20.732 19.3318 21.9913 20.2799 22.9448C21.2281 23.8983 22.7732 24.7597 24.9154 25.529C27.1296 26.3409 28.642 27.0694 29.4526 27.7144C30.2632 28.3595 30.6685 29.2255 30.6685 30.3126C30.6685 31.6187 30.1971 32.5676 29.2543 33.1592C28.3114 33.7508 27.247 34.0466 26.0611 34.0466C24.8886 34.0466 23.8396 33.694 22.9141 32.9889C21.9886 32.2838 21.2775 31.2528 20.7807 29.896L18.1445 30.9697C18.684 32.5162 19.4593 33.7448 20.4703 34.6555C21.4812 35.5663 22.7492 36.1993 24.2743 36.5546V39.1828ZM25.7486 44.7917C23.0136 44.7917 20.4422 44.2715 18.0343 43.2312C15.6265 42.1909 13.5318 40.78 11.7503 38.9984C9.96878 37.2169 8.55786 35.1223 7.51755 32.7144C6.4772 30.3066 5.95703 27.7351 5.95703 25.0001C5.95703 22.2651 6.4772 19.6936 7.51755 17.2858C8.55786 14.8779 9.96878 12.7833 11.7503 11.0018C13.5318 9.22025 15.6265 7.80933 18.0343 6.76902C20.4422 5.72867 23.0136 5.2085 25.7486 5.2085C28.4837 5.2085 31.0551 5.72867 33.463 6.76902C35.8708 7.80933 37.9655 9.22025 39.747 11.0018C41.5285 12.7833 42.9394 14.8779 43.9797 17.2858C45.0201 19.6936 45.5403 22.2651 45.5403 25.0001C45.5403 27.7351 45.0201 30.3066 43.9797 32.7144C42.9394 35.1223 41.5285 37.2169 39.747 38.9984C37.9655 40.78 35.8708 42.1909 33.463 43.2312C31.0551 44.2715 28.4837 44.7917 25.7486 44.7917ZM25.7486 41.6668C30.4014 41.6668 34.3424 40.0522 37.5716 36.823C40.8007 33.5939 42.4153 29.6529 42.4153 25.0001C42.4153 20.3473 40.8007 16.4064 37.5716 13.1772C34.3424 9.94803 30.4014 8.33344 25.7486 8.33344C21.0959 8.33344 17.1549 9.94803 13.9257 13.1772C10.6966 16.4064 9.08198 20.3473 9.08198 25.0001C9.08198 29.6529 10.6966 33.5939 13.9257 36.823C17.1549 40.0522 21.0959 41.6668 25.7486 41.6668Z" fill="white"/>
</svg>
