<svg width="51" height="50" viewBox="0 0 51 50" fill="none" xmlns="http://www.w3.org/2000/svg">
<g clip-path="url(#clip0_1_10016)">
<path d="M25.7521 44.7916C23.0148 44.7916 20.4418 44.2722 18.0332 43.2333C15.6245 42.1944 13.5294 40.7845 11.7477 39.0036C9.96592 37.2227 8.55538 35.1284 7.51604 32.7209C6.4767 30.3133 5.95703 27.7409 5.95703 25.0035C5.95703 22.2662 6.47656 19.6932 7.51562 17.2846C8.55469 14.8759 9.96484 12.7807 11.7461 10.999C13.5273 9.2173 15.622 7.80677 18.0299 6.76743C20.4379 5.72809 23.0108 5.20841 25.7486 5.20841C27.1883 5.20841 28.5825 5.35265 29.9313 5.64112C31.2802 5.9296 32.5702 6.35161 33.8015 6.90717V10.4127C32.6129 9.75831 31.3415 9.24816 29.9872 8.88222C28.6328 8.51631 27.22 8.33336 25.7486 8.33336C21.1306 8.33336 17.1983 9.95663 13.9518 13.2032C10.7052 16.4497 9.08198 20.382 9.08198 25C9.08198 29.6181 10.7052 33.5504 13.9518 36.7969C17.1983 40.0434 21.1306 41.6667 25.7486 41.6667C30.3667 41.6667 34.299 40.0434 37.5455 36.7969C40.792 33.5504 42.4153 29.6181 42.4153 25C42.4153 23.9424 42.3158 22.916 42.1168 21.9211C41.9179 20.9262 41.6408 19.9626 41.2855 19.0305H44.6428C44.9419 19.984 45.1663 20.9513 45.3159 21.9323C45.4655 22.9133 45.5403 23.9359 45.5403 25C45.5403 27.7379 45.0208 30.3108 43.9819 32.7187C42.943 35.1267 41.5331 37.2213 39.7522 39.0026C37.9713 40.7838 35.877 42.194 33.4695 43.233C31.0619 44.2721 28.4895 44.7916 25.7521 44.7916ZM42.9362 14.0625V9.89581H38.7695V6.77091H42.9362V2.60425H46.0611V6.77091H50.2278V9.89581H46.0611V14.0625H42.9362ZM32.8447 22.516C33.6027 22.516 34.2455 22.2507 34.7731 21.72C35.3006 21.1894 35.5643 20.545 35.5643 19.787C35.5643 19.0289 35.299 18.3861 34.7683 17.8586C34.2377 17.3311 33.5933 17.0674 32.8353 17.0674C32.0772 17.0674 31.4344 17.3327 30.9069 17.8634C30.3794 18.394 30.1156 19.0383 30.1156 19.7964C30.1156 20.5545 30.381 21.1973 30.9116 21.7248C31.4423 22.2523 32.0866 22.516 32.8447 22.516ZM18.662 22.516C19.4201 22.516 20.0629 22.2507 20.5904 21.72C21.1179 21.1894 21.3817 20.545 21.3817 19.787C21.3817 19.0289 21.1163 18.3861 20.5857 17.8586C20.055 17.3311 19.4107 17.0674 18.6526 17.0674C17.8945 17.0674 17.2518 17.3327 16.7242 17.8634C16.1967 18.394 15.933 19.0383 15.933 19.7964C15.933 20.5545 16.1983 21.1973 16.729 21.7248C17.2596 22.2523 17.904 22.516 18.662 22.516ZM25.7486 35.8173C27.9423 35.8173 29.9344 35.209 31.7248 33.9924C33.5152 32.7758 34.8378 31.1672 35.6925 29.1667H15.8048C16.6595 31.1672 17.982 32.7758 19.7725 33.9924C21.5629 35.209 23.555 35.8173 25.7486 35.8173Z" fill="white"/>
</g>
<defs>
<clipPath id="clip0_1_10016">
<rect width="50" height="50" fill="white" transform="translate(0.75)"/>
</clipPath>
</defs>
</svg>
