<svg width="51" height="50" viewBox="0 0 51 50" fill="none" xmlns="http://www.w3.org/2000/svg">
<path d="M33.582 22.6764C34.0921 22.6764 34.5268 22.4967 34.886 22.1375C35.2453 21.7783 35.4249 21.3436 35.4249 20.8334C35.4249 20.3233 35.2453 19.8886 34.886 19.5294C34.5268 19.1701 34.0921 18.9905 33.582 18.9905C33.0718 18.9905 32.6371 19.1701 32.2779 19.5294C31.9187 19.8886 31.7391 20.3233 31.7391 20.8334C31.7391 21.3436 31.9187 21.7783 32.2779 22.1375C32.6371 22.4967 33.0718 22.6764 33.582 22.6764ZM16.9153 18.2292H27.332V15.1043H16.9153V18.2292ZM10.4049 42.7084C9.30453 38.9103 8.20477 35.1309 7.10568 31.3703C6.00658 27.6096 5.45703 23.7501 5.45703 19.7918C5.45703 16.8912 6.46799 14.4299 8.4899 12.408C10.5118 10.3861 12.973 9.37516 15.8736 9.37516H26.8112C27.7647 8.12252 28.9085 7.11492 30.2427 6.35235C31.5768 5.58978 33.0371 5.2085 34.6236 5.2085C35.1979 5.2085 35.6886 5.41216 36.0959 5.81949C36.5033 6.22678 36.7069 6.71754 36.7069 7.29178C36.7069 7.43334 36.6875 7.5749 36.6488 7.71646C36.6101 7.85799 36.5694 7.98886 36.5266 8.10907C36.3343 8.61122 36.1707 9.12539 36.0358 9.65157C35.9009 10.1777 35.7854 10.7093 35.6893 11.2462L41.11 16.6668H45.0403V29.3951L39.3552 31.2621L35.9257 42.7084H26.2904V38.5417H20.0403V42.7084H10.4049ZM12.7486 39.5834H16.9153V35.4168H29.4153V39.5834H33.582L36.8111 28.8543L41.9153 27.1355V19.7918H39.832L32.5403 12.5001C32.5403 11.8057 32.5837 11.1373 32.6705 10.4949C32.7573 9.85254 32.9009 9.20818 33.1012 8.56183C32.0943 8.83961 31.2155 9.3237 30.465 10.0141C29.7145 10.7046 29.1389 11.5332 28.7382 12.5001H15.8736C13.8598 12.5001 12.141 13.2119 10.7174 14.6355C9.29378 16.0591 8.58198 17.7779 8.58198 19.7918C8.58198 23.1946 9.05073 26.5192 9.98823 29.7657C10.9257 33.0123 11.8459 36.2848 12.7486 39.5834Z" fill="white"/>
</svg>
