<svg width="80" height="80" viewBox="0 0 80 80" fill="none" xmlns="http://www.w3.org/2000/svg">
<path d="M40.0145 69C36.0048 69 32.2345 68.2391 28.7035 66.7174C25.1724 65.1956 22.1009 63.1304 19.4889 60.5218C16.877 57.913 14.8092 54.8454 13.2855 51.3188C11.7618 47.7923 11 44.0242 11 40.0145C11 36.0048 11.7612 32.2345 13.2838 28.7035C14.8063 25.1724 16.8725 22.1009 19.4825 19.489C22.0925 16.877 25.1617 14.8092 28.69 13.2855C32.2183 11.7618 35.9883 11 40 11C42.1667 11 44.2778 11.2222 46.3333 11.6667C48.3889 12.1111 50.3333 12.7778 52.1667 13.6667V16.25C50.3333 15.3056 48.3997 14.5833 46.3657 14.0833C44.3317 13.5833 42.2098 13.3333 40 13.3333C32.6111 13.3333 26.3194 15.9306 21.125 21.125C15.9306 26.3194 13.3333 32.6111 13.3333 40C13.3333 47.3889 15.9306 53.6806 21.125 58.875C26.3194 64.0695 32.6111 66.6667 40 66.6667C47.3889 66.6667 53.6806 64.0695 58.875 58.875C64.0695 53.6806 66.6667 47.3889 66.6667 40C66.6667 38.4444 66.5417 36.9306 66.2917 35.4583C66.0417 33.9861 65.6667 32.5556 65.1667 31.1667H67.6667C68.1111 32.5556 68.4445 33.9794 68.6667 35.4382C68.8889 36.8969 69 38.4176 69 40C69 44.0117 68.2391 47.7817 66.7174 51.31C65.1956 54.8383 63.1304 57.9075 60.5218 60.5175C57.913 63.1275 54.8454 65.1938 51.3188 66.7163C47.7923 68.2388 44.0242 69 40.0145 69ZM68.8333 21.1667V14.5H62.1667V12.1667H68.8333V5.5H71.1667V12.1667H77.8333V14.5H71.1667V21.1667H68.8333ZM50.8529 35C51.7843 35 52.5695 34.674 53.2083 34.0221C53.8472 33.3701 54.1667 32.5784 54.1667 31.6471C54.1667 30.7157 53.8407 29.9306 53.1888 29.2917C52.5368 28.6528 51.7451 28.3333 50.8138 28.3333C49.8824 28.3333 49.0972 28.6593 48.4583 29.3113C47.8195 29.9633 47.5 30.7549 47.5 31.6863C47.5 32.6176 47.826 33.4028 48.4779 34.0417C49.1299 34.6806 49.9216 35 50.8529 35ZM29.1863 35C30.1176 35 30.9028 34.674 31.5417 34.0221C32.1806 33.3701 32.5 32.5784 32.5 31.6471C32.5 30.7157 32.174 29.9306 31.5221 29.2917C30.8701 28.6528 30.0784 28.3333 29.1471 28.3333C28.2157 28.3333 27.4306 28.6593 26.7917 29.3113C26.1528 29.9633 25.8333 30.7549 25.8333 31.6863C25.8333 32.6176 26.1593 33.4028 26.8113 34.0417C27.4633 34.6806 28.2549 35 29.1863 35ZM40 55.6667C43.0813 55.6667 45.8794 54.8472 48.3943 53.2083C50.9092 51.5695 52.8333 49.3889 54.1667 46.6667H25.8333C27.1667 49.3889 29.0908 51.5695 31.6057 53.2083C34.1206 54.8472 36.9187 55.6667 40 55.6667Z" fill="white"/>
</svg>
