<svg width="20" height="20" viewBox="0 0 20 20" fill="none" xmlns="http://www.w3.org/2000/svg">
<path d="M10 0C4.48801 0 0 4.48799 0 10C0 15.516 4.48801 20 10 20C15.516 20 20 15.516 20 10C20 4.48799 15.516 0 10 0ZM16.068 7.31201L8.804 14.58C8.64001 14.74 8.428 14.824 8.21602 14.824C8.004 14.824 7.78801 14.74 7.628 14.58L3.93201 10.884C3.696 10.648 3.56799 10.336 3.56799 10C3.56799 9.66799 3.7 9.352 3.93601 9.11599C4.424 8.628 5.21602 8.63201 5.7 9.11599L8.19199 11.608C8.19199 11.608 8.22 11.608 8.23201 11.608C8.23601 11.608 8.23601 11.608 8.23601 11.608L14.3 5.548C14.788 5.06001 15.58 5.06001 16.068 5.54399C16.304 5.78 16.436 6.096 16.436 6.428C16.436 6.76399 16.304 7.076 16.068 7.31201Z" fill="#57B657"/>
</svg>
