<svg width="80" height="80" viewBox="0 0 80 80" fill="none" xmlns="http://www.w3.org/2000/svg">
<path d="M38.6667 61.6667H41.1667V57.8333C43.4444 57.7222 45.7083 56.9306 47.9583 55.4583C50.2083 53.9861 51.3333 51.6667 51.3333 48.5C51.3333 46.1667 50.6111 44.2222 49.1667 42.6667C47.7222 41.1111 45 39.6111 41 38.1667C37.2222 36.8333 34.8611 35.6944 33.9167 34.75C32.9722 33.8056 32.5 32.4444 32.5 30.6667C32.5 28.8889 33.2083 27.3889 34.625 26.1667C36.0417 24.9444 37.8889 24.3333 40.1667 24.3333C41.8333 24.3333 43.25 24.7083 44.4167 25.4583C45.5833 26.2083 46.5556 27.1667 47.3333 28.3333L49.5 27.5C48.6667 26 47.5139 24.7639 46.0417 23.7917C44.5694 22.8194 43 22.2778 41.3333 22.1667V18.3333H38.8333V22.1667C35.8889 22.6111 33.6806 23.6528 32.2083 25.2917C30.7361 26.9306 30 28.7222 30 30.6667C30 33 30.75 34.8611 32.25 36.25C33.75 37.6389 36.3333 39 40 40.3333C43.6111 41.6667 46.0139 42.875 47.2083 43.9583C48.4028 45.0417 49 46.5556 49 48.5C49 51 48.0833 52.7917 46.25 53.875C44.4167 54.9583 42.5 55.5 40.5 55.5C38.5556 55.5 36.7917 54.9444 35.2083 53.8333C33.625 52.7222 32.3333 51.1667 31.3333 49.1667L29.1667 50.1667C30.1667 52.3333 31.4583 54 33.0417 55.1667C34.625 56.3333 36.5 57.1667 38.6667 57.6667V61.6667ZM40 69C36 69 32.2361 68.2361 28.7083 66.7083C25.1806 65.1806 22.1111 63.1111 19.5 60.5C16.8889 57.8889 14.8194 54.8194 13.2917 51.2917C11.7639 47.7639 11 44 11 40C11 36 11.7639 32.2361 13.2917 28.7083C14.8194 25.1806 16.8889 22.1111 19.5 19.5C22.1111 16.8889 25.1806 14.8194 28.7083 13.2917C32.2361 11.7639 36 11 40 11C44 11 47.7639 11.7639 51.2917 13.2917C54.8194 14.8194 57.8889 16.8889 60.5 19.5C63.1111 22.1111 65.1806 25.1806 66.7083 28.7083C68.2361 32.2361 69 36 69 40C69 44 68.2361 47.7639 66.7083 51.2917C65.1806 54.8194 63.1111 57.8889 60.5 60.5C57.8889 63.1111 54.8194 65.1806 51.2917 66.7083C47.7639 68.2361 44 69 40 69ZM40 66.6667C47.4444 66.6667 53.75 64.0833 58.9167 58.9167C64.0833 53.75 66.6667 47.4444 66.6667 40C66.6667 32.5556 64.0833 26.25 58.9167 21.0833C53.75 15.9167 47.4444 13.3333 40 13.3333C32.5556 13.3333 26.25 15.9167 21.0833 21.0833C15.9167 26.25 13.3333 32.5556 13.3333 40C13.3333 47.4444 15.9167 53.75 21.0833 58.9167C26.25 64.0833 32.5556 66.6667 40 66.6667Z" fill="black"/>
</svg>
