<svg width="80" height="80" viewBox="0 0 80 80" fill="none" xmlns="http://www.w3.org/2000/svg">
<path d="M53.3333 35.6667C53.9444 35.6667 54.4861 35.4306 54.9583 34.9583C55.4306 34.4861 55.6667 33.9444 55.6667 33.3333C55.6667 32.7222 55.4306 32.1806 54.9583 31.7083C54.4861 31.2361 53.9444 31 53.3333 31C52.7222 31 52.1806 31.2361 51.7083 31.7083C51.2361 32.1806 51 32.7222 51 33.3333C51 33.9444 51.2361 34.4861 51.7083 34.9583C52.1806 35.4306 52.7222 35.6667 53.3333 35.6667ZM26.6667 27.8333H43.3333V25.5H26.6667V27.8333ZM18.25 65.6667C16.6944 60 15.0972 54.3889 13.4583 48.8333C11.8194 43.2778 11 37.5556 11 31.6667C11 27.7778 12.3611 24.4722 15.0833 21.75C17.8056 19.0278 21.1111 17.6667 25 17.6667H43.8333C45.2222 15.8333 46.8472 14.2639 48.7083 12.9583C50.5694 11.6528 52.6667 11 55 11C55.1667 11 55.3194 11.0694 55.4583 11.2083C55.5972 11.3472 55.6667 11.5 55.6667 11.6667C55.6667 11.7222 55.6528 11.7778 55.625 11.8333C55.5972 11.8889 55.5833 11.9444 55.5833 12C55.1389 13.1111 54.7917 14.25 54.5417 15.4167C54.2917 16.5833 54.0556 17.75 53.8333 18.9167L64.25 29.3333H69V45.0833L60.4167 47.9167L55.0833 65.6667H44.3333V59H29V65.6667H18.25ZM20 63.3333H26.6667V56.6667H46.6667V63.3333H53.3333L58.5 46.1667L66.6667 43.4167V31.6667H63.3333L51.6667 20C51.6667 18.8889 51.7361 17.8194 51.875 16.7917C52.0139 15.7639 52.2778 14.75 52.6667 13.75C51.0556 14.1944 49.6667 14.9861 48.5 16.125C47.3333 17.2639 46.3611 18.5556 45.5833 20H25C21.7778 20 19.0278 21.1389 16.75 23.4167C14.4722 25.6944 13.3333 28.4444 13.3333 31.6667C13.3333 37.1111 14.0833 42.4306 15.5833 47.625C17.0833 52.8194 18.5556 58.0555 20 63.3333Z" fill="black"/>
</svg>
